<?xml version="1.0" encoding="utf-8"?>
<!-- Generator: Adobe Illustrator 18.0.0, SVG Export Plug-In . SVG Version: 6.00 Build 0)  -->
<!DOCTYPE svg PUBLIC "-//W3C//DTD SVG 1.1//EN" "http://www.w3.org/Graphics/SVG/1.1/DTD/svg11.dtd">
<svg version="1.1" id="Layer_1" xmlns:sketch="http://www.bohemiancoding.com/sketch/ns"
	 xmlns="http://www.w3.org/2000/svg" xmlns:xlink="http://www.w3.org/1999/xlink" x="0px" y="0px" viewBox="0 0 424 607"
	 enable-background="new 0 0 424 607" xml:space="preserve">
<title>Group</title>
<desc>Created with Sketch.</desc>
<g id="Page-1" sketch:type="MSPage">
	<g id="Group" sketch:type="MSLayerGroup">
		<path id="Fill-1" sketch:type="MSShapeGroup" fill="#FFFFFF" d="M339.6,182.4c-31.6,38.6-62.8,76.7-94.1,115.1
			c-17.2-7.4-34.3-14.7-51.2-22.2c-1.2-0.5-2.2-2.4-2.6-3.8c-5.6-18.8-11-37.6-16.6-56.4c-1.8-6.2-0.6-11.3,3.9-16
			c9.8-10.4,19.6-20.9,28.9-31.8c5.9-6.9,12.3-8.7,21.2-6.9c36.1,7.4,72.4,14.2,108.6,21.2C338,181.7,338.4,181.9,339.6,182.4"/>
		<path id="Fill-2" sketch:type="MSShapeGroup" fill="#FFFFFF" d="M245.6,154.8C163.9,141,82.2,127.3,0.4,113.5
			c0-0.2-0.1-0.5-0.1-0.7c7.2-2.1,14.4-4.3,21.5-6.4C60.2,95,98.6,83.7,136.9,72.3c3.2-1,5.5-0.6,8.1,1.5
			c32.5,25.8,65,51.4,97.6,77.1c1.2,0.9,2.2,1.9,3.3,2.9C245.8,154.1,245.7,154.5,245.6,154.8"/>
		<path id="Fill-3" sketch:type="MSShapeGroup" fill="#FFFFFF" d="M49.3,0.5c15,6.5,29.1,12.6,43.2,18.7
			c44.2,19.2,88.4,38.3,132.6,57.6c2.4,1.1,4.9,3.5,6,5.9c11,23.6,21.8,47.4,32.6,71.1c0.5,1,0.8,2.1,1.8,4.5
			c-12.3-9.7-23.3-18.4-34.4-27.1c-28.1-22.2-56.2-44.3-84.3-66.5c-2.6-2-4.7-2.3-7.7-1.3c-10.7,3.6-21.5,6.9-32.2,10.5
			c-2.4,0.8-4.1,1.1-5.9-1.5C84.4,49.2,67.5,26.1,50.7,2.9C50.4,2.4,50.1,1.9,49.3,0.5"/>
		<path id="Fill-4" sketch:type="MSShapeGroup" fill="#FFFFFF" d="M234.9,349.7c-47.1-5.8-93.5-11.5-140.7-17.3
			c4.7-4.8,9-9.1,13.3-13.3c7.8-7.7,15.5-15.6,23.5-23.1c14.4-13.5,31.5-19,50.9-15.2c5.2,1,10.1,4,15,6.5
			c12.7,6.3,25.2,12.9,37.9,19.1c3.6,1.8,5.1,3.4,4.4,7.8C237.4,325.7,236.3,337.4,234.9,349.7"/>
		<path id="Fill-5" sketch:type="MSShapeGroup" fill="#FFFFFF" d="M94.5,346.2c47.3,5.3,93.4,10.5,139.7,15.7
			c-22.8,26.3-45.3,52.3-68.2,78.9C142.5,409.6,118.9,378.4,94.5,346.2"/>
		<path id="Fill-6" sketch:type="MSShapeGroup" fill="#FFFFFF" d="M348.5,189.4c10.1,11.5,20.1,22.8,29.9,34.4
			c1.6,1.9,2.7,5.4,2.2,7.7c-3.9,17.5-10.5,34-22.3,47.9c-8.2,9.7-18.4,16.3-32,18c-1.7-6.2-3.4-12.5-5.1-18.8
			c-3.4-13-6.8-26-9.9-39.1c-0.4-1.8-0.3-4.5,0.8-5.9c11.6-14.6,23.4-29,35.1-43.5C347.4,189.9,347.7,189.9,348.5,189.4"/>
		<path id="Fill-7" sketch:type="MSShapeGroup" fill="#FFFFFF" d="M311.7,447.5c-15.4,2.1-30.1,4-44.8,6c-9.4,1.3-18.8,3-28.2,3.6
			c-7.7,0.5-15.7,0.6-23.3-0.8c-14-2.6-27.8-6.5-43.1-10.2c6.2-6,11.8-11.2,17.2-16.6c8.9-8.8,17.7-17.7,26.4-26.6
			c1.9-2,3.4-2.4,6-1.1c29.2,14.8,58.5,29.5,87.7,44.2C310.1,446.1,310.4,446.5,311.7,447.5"/>
		<path id="Fill-8" sketch:type="MSShapeGroup" fill="#FFFFFF" d="M36.8,606.2H24.1V520h12.6v34.5h31v-34.7h12.7v86.2H67.7
			c0-10.6,0.1-21.1,0-31.5c-0.1-10.7,1.1-8.8-9-9c-7.1-0.1-14.2,0-21.9,0V606.2"/>
		<path id="Fill-9" sketch:type="MSShapeGroup" fill="#FFFFFF" d="M361.7,595.7V606c-12.4,0-24.7,1-36.8-0.3
			c-10.4-1.1-16.7-10.6-16.7-21.2c0-7.3-0.1-14.7,0-22c0.1-11.1,8.3-20.1,19.4-20.9c6.1-0.4,12.3-0.4,18.5,0
			c10.4,0.7,18.5,9.1,19.2,19.5c1.2,16.7,1.2,16.7-15.3,16.7c-8.3,0-16.7,0.2-25-0.1c-3.9-0.1-4.8,1.4-4.7,5
			c0.2,9.2,3.8,12.9,13.1,13C342.7,595.7,352,595.7,361.7,595.7L361.7,595.7z M352.6,567.2c1.5-10.5-2.3-14.9-12.2-14.9
			c-3.5,0-7-0.1-10.4,0c-6.3,0.3-11,6.5-9.5,12.6c0.2,0.9,1.7,2.2,2.5,2.2C332.9,567.3,342.8,567.2,352.6,567.2L352.6,567.2z"/>
		<path id="Fill-10" sketch:type="MSShapeGroup" fill="#FFFFFF" d="M155.3,574.1c0,4,0.2,8,0,12c-0.5,11.3-9.2,20-20.5,20.4
			c-5.5,0.2-11,0.2-16.5,0c-11-0.5-20-9.9-20.1-20.9c-0.1-7.7-0.1-15.3,0-23c0.1-11.1,8.3-20.1,19.4-20.9c6.1-0.4,12.3-0.4,18.4,0
			c10.7,0.7,18.8,9.2,19.3,19.9C155.5,565.7,155.3,569.9,155.3,574.1L155.3,574.1z M143.1,573.8L143.1,573.8c0-3.8,0.2-7.7-0.1-11.5
			c-0.3-6.2-4.2-9.8-10.2-10c-4.2-0.1-8.3-0.1-12.5,0c-5.3,0.2-9.2,3.1-9.5,8.3c-0.5,8.9-0.4,17.9,0,26.9c0.3,4.8,4.4,7.9,9.2,8.1
			c4,0.2,8,0.1,12,0c6.7-0.1,10.7-4.1,11-10.9C143.2,581.1,143.1,577.5,143.1,573.8L143.1,573.8z"/>
		<path id="Fill-11" sketch:type="MSShapeGroup" fill="#FFFFFF" d="M289.9,606.2H278c-0.1-1.8-0.3-3.6-0.3-5.4c0-11.5,0-23,0-34.5
			c0-10.9-3.2-14-13.8-14.1c-5.1,0-10.3,0-16,0v53.8h-11.7c-0.1-1.4-0.4-2.9-0.4-4.3c0-18.5,0.1-37-0.1-55.5c0-3.8,0.9-5.3,5-5.2
			c10.1,0.4,20.3-0.1,30.5,0.5c10,0.6,18.6,9.6,18.7,19.4C290.1,576,289.9,590.8,289.9,606.2"/>
		<path id="Fill-12" sketch:type="MSShapeGroup" fill="#FFFFFF" d="M388.1,552.4h-10.6v-10.9c3.4-0.2,6.7-0.4,10.5-0.6v-21.1h12
			c0,5.8,0.2,11.4-0.1,16.9c-0.2,3.6,1.2,4.7,4.6,4.5c4.3-0.2,8.7,0.2,13-0.1c4.5-0.4,6.5,1.2,5.8,5.8c-0.2,1.6-0.2,3.2-0.4,5.3
			h-22.6v43.2h22.5v10.7c-9,0-18.1,0.4-27.1-0.2c-4.6-0.3-7.6-5.2-7.6-10.3c-0.1-12.5,0-25,0-37.4V552.4"/>
		<path id="Fill-13" sketch:type="MSShapeGroup" fill="#FFFFFF" d="M208,552.6h-22.9v53.5h-11.9c-0.1-0.9-0.4-1.7-0.4-2.5
			c0-19.5,0-39-0.1-58.5c0-3.2,1.3-3.9,4.2-3.9c10.3,0.1,20.7-0.1,31,0.1c8.7,0.1,12.1,3.9,12.2,12.7c0,4.6,0,9.2,0,14.1h-12v-7.9
			V552.6"/>
		<path id="Fill-14" sketch:type="MSShapeGroup" fill="#FFFFFF" d="M392.5,170.6c1.4,5.2,2.8,10.5,4,15.8c0.2,1-0.1,2.3-0.7,3.1
			c-4.9,7.3-9.9,14.5-15.9,21.3c3.8-13.4,7.7-26.9,11.5-40.3C391.7,170.5,392.1,170.6,392.5,170.6"/>
	</g>
</g>
</svg>
